# xmcd CD database file
#
# Track frame offsets:
#	150
#	22105
#	40092
#	56272
#	68877
#	91725
#	108075
#	122392
#	140245
#	160825
#	181485
#	199190
#	216015
#	233970
#	249067
#	262407
#	281390
#	293617
#
# Disc length: 4169 seconds
#
# Revision: 3
# Processed by: cddbd v1.5PL3 Copyright (c) Steve Scherf et al.
# Submitted via: CDex 1.40Release
#
DISCID=fe104712
DTITLE=五木ひろし - 絆/五木ひろし テレビ・映画主題歌集
DYEAR=1989
DGENRE=Other
TTITLE0=絆
TTITLE1=こころうた
TTITLE2=狼のバラード
TTITLE3=明日の愛
TTITLE4=陽炎
TTITLE5=まだ乾かない油絵に
TTITLE6=夢見びと
TTITLE7=流れのままに
TTITLE8=当日・消印・有効(ブービーズ)
TTITLE9=おはん
TTITLE10=夢色舞い
TTITLE11=紅い花
TTITLE12=あほう鳥
TTITLE13=旅鴉
TTITLE14=今日だけは
TTITLE15=契りパート?
TTITLE16=恋歌
TTITLE17=契り
EXTD=YEAR: 1989 ID3G: 12
EXTT0=
EXTT1=
EXTT2=
EXTT3=
EXTT4=
EXTT5=
EXTT6=
EXTT7=
EXTT8=
EXTT9=
EXTT10=
EXTT11=
EXTT12=
EXTT13=
EXTT14=
EXTT15=
EXTT16=
EXTT17=
PLAYORDER=
